# xmcd
#
# Track frame offsets: 
#        150
#        29513
#        47761
#        75337
#        104673
#        130000
#        145955
#        167877
#        190223
#        206385
#
# Disc length: 3093 seconds
#
# Revision: 0
# Processed by: cddbd v1.5.2PL0 Copyright (c) Steve Scherf et al.
# Submitted via: ExactAudioCopyFreeDBPlugin 1.0
#
DISCID=870c130a
DTITLE=Stefan Waggershausen  - Aus der Zeit gefallen, CD 2
DYEAR=2019
DGENRE=Blues
TTITLE0=Der Rock'n Roll ruft seine Kinder heim
TTITLE1=Du bist draußen
TTITLE2=New Orleans war gestern
TTITLE3=Schwestern der Liebe
TTITLE4=Windstärke 10
TTITLE5=Herzlichen Glückwunsch
TTITLE6=Kleines Boot
TTITLE7=Sonntagskind
TTITLE8=So isses nunmal
TTITLE9=Die Drinks
EXTD=
EXTT0=
EXTT1=
EXTT2=
EXTT3=
EXTT4=
EXTT5=
EXTT6=
EXTT7=
EXTT8=
EXTT9=
PLAYORDER=
